<?xml version="1.0" encoding="UTF-8" standalone="no"?>
<svg
   xmlns:dc="http://purl.org/dc/elements/1.1/"
   xmlns:cc="http://creativecommons.org/ns#"
   xmlns:rdf="http://www.w3.org/1999/02/22-rdf-syntax-ns#"
   xmlns:svg="http://www.w3.org/2000/svg"
   xmlns="http://www.w3.org/2000/svg"
   xmlns:sodipodi="http://sodipodi.sourceforge.net/DTD/sodipodi-0.dtd"
   xmlns:inkscape="http://www.inkscape.org/namespaces/inkscape"
   width="210mm"
   height="297mm"
   viewBox="0 0 210 297"
   version="1.1"
   id="svg8"
   inkscape:version="1.0 (4035a4fb49, 2020-05-01)"
   sodipodi:docname="logo.svg">
  <defs
     id="defs2" />
  <sodipodi:namedview
     id="base"
     pagecolor="#ffffff"
     bordercolor="#666666"
     borderopacity="1.0"
     inkscape:pageopacity="0.0"
     inkscape:pageshadow="2"
     inkscape:zoom="0.7"
     inkscape:cx="395.6549"
     inkscape:cy="594.60845"
     inkscape:document-units="mm"
     inkscape:current-layer="layer4"
     inkscape:document-rotation="0"
     showgrid="false"
     inkscape:window-width="1920"
     inkscape:window-height="1027"
     inkscape:window-x="-8"
     inkscape:window-y="-8"
     inkscape:window-maximized="1" />
  <metadata
     id="metadata5">
    <rdf:RDF>
      <cc:Work
         rdf:about="">
        <dc:format>image/svg+xml</dc:format>
        <dc:type
           rdf:resource="http://purl.org/dc/dcmitype/StillImage" />
        <dc:title></dc:title>
      </cc:Work>
    </rdf:RDF>
  </metadata>
  <g
     sodipodi:insensitive="true"
     inkscape:groupmode="layer"
     id="layer4"
     inkscape:label="bike_low-z"
     style="opacity:1">
    <path
       sodipodi:nodetypes="cccc"
       id="path864-2"
       d="m 53.533196,146.31959 c 25.655006,10.08678 30.485552,28.49284 34.895962,50.44962 -4.45564,50.22089 -55.197905,36.31053 -71.435597,7.30913 -19.3449751,-30.43494 3.721415,-72.30506 36.539635,-57.75875 z"
       style="display:inline;opacity:1;fill:#000000;fill-opacity:1;stroke:#000000;stroke-width:0.441772px;stroke-linecap:butt;stroke-linejoin:miter;stroke-opacity:1" />
    <path
       sodipodi:nodetypes="ccccc"
       id="path864-26"
       d="m 16.199337,166.60659 c 13.122959,-34.75885 50.219469,-15.00932 60.66802,3.74665 10.383093,17.91129 10.242424,35.81333 -1.152808,49.42786 -20.2592,17.97628 -47.808812,-1.22061 -56.056743,-17.29265 -6.091,-11.96053 -7.945673,-23.92131 -3.458469,-35.88186 z"
       style="display:inline;opacity:1;fill:#ffffff;fill-opacity:1;stroke:#000000;stroke-width:0.403503px;stroke-linecap:butt;stroke-linejoin:miter;stroke-opacity:1" />
    <path
       style="fill:#000000;fill-opacity:1;stroke:#000000;stroke-width:0.403503px;stroke-linecap:butt;stroke-linejoin:miter;stroke-opacity:1"
       d="m 77.333023,155.41773 -33.288154,37.32289 33.576353,13.9783 c 0.2358,-1.04071 -0.119836,-1.78573 0.83845,-3.18802 L 47.215149,191.73206 78.774063,160.31715 Z"
       id="path972"
       sodipodi:nodetypes="ccccccc" />
    <path
       style="opacity:1;fill:#000000;fill-opacity:1;fill-rule:evenodd;stroke:#7a7a7a;stroke-width:0.762524;stroke-miterlimit:4;stroke-dasharray:none"
       id="path974"
       sodipodi:type="arc"
       sodipodi:cx="45.875652"
       sodipodi:cy="192.58478"
       sodipodi:rx="2.63778"
       sodipodi:ry="2.4657183"
       sodipodi:start="0"
       sodipodi:end="6.2826792"
       sodipodi:arc-type="slice"
       d="m 48.513432,192.58478 a 2.63778,2.4657183 0 0 1 -2.637446,2.46572 2.63778,2.4657183 0 0 1 -2.638114,-2.4651 2.63778,2.4657183 0 0 1 2.636779,-2.46634 2.63778,2.4657183 0 0 1 2.638781,2.46447 l -2.63778,0.001 z" />
    <path
       style="fill:#000000;fill-opacity:1;stroke:#000000;stroke-width:0.403503px;stroke-linecap:butt;stroke-linejoin:miter;stroke-opacity:1"
       d="m 60.936756,188.82796 c 6.545812,4.09813 12.596032,8.77445 19.869974,12.02345 -0.782373,0.58509 -1.564716,1.28908 -2.347066,2.67949 -5.73108,-4.08586 -11.675318,-7.9682 -18.083366,-12.05412 z"
       id="path978"
       sodipodi:nodetypes="ccccc" />
  </g>
  <g
     sodipodi:insensitive="true"
     inkscape:groupmode="layer"
     id="layer2"
     inkscape:label="human"
     style="display:inline;opacity:1">
    <path
       style="fill:#285af4;fill-opacity:1;stroke:#000000;stroke-width:0;stroke-linecap:butt;stroke-linejoin:miter;stroke-miterlimit:4;stroke-dasharray:none;stroke-opacity:1"
       d="m 83.385415,68.52292 -7.062175,9.338356 c -2.116849,3.887729 -4.387327,7.672268 -7.642314,10.80122 -9.356558,9.313536 -14.547119,17.960024 -17.118752,26.187494 l 0.203805,10.08773 c 3.067534,2.84253 1.577823,10.24273 2.343635,15.38677 -0.347347,7.57386 0.540712,15.14845 1.528441,22.72302 0.05747,3.30838 -0.447597,4.64905 -0.917055,6.11404 l -2.853143,9.98546 c -4.50199,9.21028 -2.913761,18.03983 -3.464509,27.00285 0.630082,5.10348 1.705598,10.40439 0,14.46976 -3.199866,-1.16661 -3.851384,1.91377 -5.60433,3.15893 -3.563728,1.95037 -3.167768,4.6919 -2.751225,7.43818 l 4.891072,7.64242 c 0.712308,3.12943 2.015489,6.03722 4.89107,8.35605 3.634283,1.28266 7.268648,1.97433 10.903009,1.62986 2.487704,-1.1591 3.947031,-2.68568 2.649288,-5.19636 -0.966252,-3.0184 -2.113984,-5.97562 -4.687235,-8.45788 1.91695,-0.80439 -0.339039,-6.70908 -0.611384,-10.18965 -1.816546,-5.89146 -1.704289,-11.97599 -0.815174,-18.13815 l 3.668317,-18.03506 5.196715,-14.57179 c 2.524829,-7.69898 3.571726,-16.87559 4.789187,-25.88179 l 1.222766,-8.04989 1.222774,-3.66868 c 0.676001,-4.0754 1.660136,-8.15163 4.483513,-12.22732 7.998294,2.4182 16.355347,4.23828 25.168549,5.29837 l 9.47594,1.4269 c 1.00997,0.75783 1.84135,1.56064 0.71348,2.85324 -5.75391,4.40051 -6.18735,10.05204 -7.54013,15.48805 l 12.73694,-0.8153 c 2.10882,-3.46385 4.74473,-6.49314 5.70637,-10.90293 1.56231,0.27142 2.31006,0.95103 2.24221,2.03808 l 1.73195,5.29837 c 0.72677,0.16569 1.56147,1.08223 2.03808,-0.50884 l -2.03808,-5.60477 c 4.13867,-2.60229 8.75078,-1.51819 12.63507,-1.83379 0.47697,-1.19994 1.97739,-2.17255 0.2038,-3.87265 -3.31069,-1.52842 -7.73018,-2.61372 -13.75586,-3.05646 -0.87804,-2.32301 -2.28324,-4.46982 -3.97401,-6.52143 l -3.26116,-6.31827 c -2.12824,-4.92442 -4.86834,-9.84964 -8.35521,-14.77485 -2.64283,-4.703928 -4.24306,-6.870493 -4.58614,-8.932504 -0.55939,-3.359509 2.12004,-4.81856 4.89162,-9.612473 l 16.20189,16.914517 c 3.3439,3.99877 5.92955,8.45287 10.49528,11.71826 l 6.82736,7.64263 3.46431,3.76982 6.11387,-3.15901 -1.22275,-2.24145 -1.93622,-3.46462 -2.13983,0.30614 -11.51442,-17.017041 -5.7062,-4.687483 -9.2724,-11.208907 c -2.47802,-5.21999 -5.39625,-10.48385 -9.78245,-15.89545 v -1.528421 c 2.55507,-0.505877 3.73185,-1.700348 5.19677,-2.751211 1.1901,-1.867727 2.28732,-3.766382 2.34362,-6.01191 1.62034,-1.920441 2.38235,-3.669231 3.05718,-5.400564 l 1.42667,-0.713264 c 1.46502,-3.501248 1.22047,-6.880373 0,-10.189803 l -3.15877,-2.037933 c -1.70141,-3.244143 -4.51071,-3.236458 -7.43888,-2.547442 -3.81854,-2.635706 -5.3132,-2.207338 -8.96703,-0.203783 l -2.85287,2.343664 -2.1399,2.547432 -1.630236,3.362584 -0.203864,3.056947 0.203864,2.547425 1.324636,0.713263 1.22265,1.42656 0.40735,2.547435 0.10177,3.056953 1.12095,1.3247 1.22285,0.509418 v 1.019 l -4.07596,0.713309 c -2.590146,-0.04055 -5.102716,0.509219 -7.540332,1.630273 -4.276396,2.117775 -6.846853,4.235641 -9.648983,6.353649 z"
       id="path848"
       sodipodi:nodetypes="ccccccccccccccccccccccccccccccccccccccccccsccccccccccccccccccccccccccccccccccccc" />
    <path
       style="opacity:1;fill:#285af4;fill-opacity:1;stroke:#000000;stroke-width:0;stroke-linecap:butt;stroke-linejoin:miter;stroke-miterlimit:4;stroke-dasharray:none;stroke-opacity:1"
       d="m 103.93735,153.77498 11.71796,-0.61125 c -2.85048,3.74583 -6.07221,7.04676 -7.64202,12.32894 v 0 c -1.7527,8.25932 3.40825,15.34983 6.82687,22.316 -0.93301,1.99976 -3.21156,1.94207 -4.47554,2.183 -3.69959,0.70416 -7.19426,-3.743 -9.78986,-7.37971 -1.358817,-2.17407 -3.940072,-4.34765 -5.298707,-6.52144 l -1.324591,-2.64962 0.815028,-4.89139 c -0.01277,-1.12019 -0.174882,-2.24135 1.120978,-3.36176 l 3.158792,-1.63072 z"
       id="path858"
       sodipodi:nodetypes="cccccsccccccc" />
    <path
       sodipodi:nodetypes="ccccccc"
       id="path868"
       d="m 99.958802,100.22607 c -1.376442,0.8909 -4.037142,1.7818 -6.815373,2.6727 -0.06155,1.94297 -1.194586,2.81446 -2.672694,3.34087 l 0.267269,1.46998 9.488066,2.80633 7.48355,2.00452 z"
       style="fill:#ffffff;fill-opacity:1;stroke:#000000;stroke-width:0;stroke-linecap:butt;stroke-linejoin:miter;stroke-miterlimit:4;stroke-dasharray:none;stroke-opacity:1" />
  </g>
  <g
     inkscape:groupmode="layer"
     id="layer3"
     inkscape:label="bike"
     style="display:inline;opacity:1"
     sodipodi:insensitive="true">
    <path
       sodipodi:nodetypes="csccc"
       id="path864-8"
       d="m 121.24894,191.13139 c 8.99562,-17.51001 20.1851,-21.95181 31.99338,-22.09557 34.17821,-0.41532 65.3939,53.09343 38.35687,82.04848 -25.95932,20.40567 -55.9614,-1.99656 -66.52984,-20.24064 -5.15938,-13.28341 -7.33114,-25.88622 -3.82041,-39.71227 z"
       style="display:inline;opacity:1;fill:#000000;fill-opacity:1;stroke:#000000;stroke-width:0.486635px;stroke-linecap:butt;stroke-linejoin:miter;stroke-opacity:1" />
    <path
       style="fill:#000000;fill-opacity:0.99187;stroke:#000000;stroke-width:0.403503px;stroke-linecap:butt;stroke-linejoin:miter;stroke-opacity:1"
       d="m 92.015367,198.10033 9.680233,-14.57147 2.13976,2.75086 -1.93258,2.64203 c -1.929387,4.33338 -4.222097,7.86787 -6.830451,10.70722 l -2.320094,2.19035 z"
       id="path897"
       sodipodi:nodetypes="ccccccc" />
    <path
       style="fill:#ffffff;fill-opacity:1;stroke:#000000;stroke-width:0.403503px;stroke-linecap:butt;stroke-linejoin:miter;stroke-opacity:1"
       d="m 127.19327,194.03778 c 13.12269,-34.75892 50.21952,-15.00918 60.66789,3.74666 10.38326,17.911 10.2426,35.81329 -1.15276,49.42804 -20.25928,17.9757 -47.80908,-1.22049 -56.05664,-17.29268 -6.09131,-11.96084 -7.94571,-23.92162 -3.45849,-35.88202 z"
       id="path864"
       sodipodi:nodetypes="ccccc" />
    <path
       style="fill:#000000;fill-opacity:1;stroke:#000000;stroke-width:0.403503px;stroke-linecap:butt;stroke-linejoin:miter;stroke-opacity:1"
       d="m 73.368198,136.65581 14.19624,62.28154 5.187797,2.88197 -17.724892,-71.76402 z"
       id="path881" />
    <path
       style="fill:#000000;fill-opacity:1;stroke:#000000;stroke-width:0.403503px;stroke-linecap:butt;stroke-linejoin:miter;stroke-opacity:1"
       d="m 79.991554,150.10647 c 19.906769,-0.63163 39.868246,-0.8254 59.594756,-2.90286 1.42392,6.47923 -0.45657,9.18086 -3.02642,11.09597 l 2.3775,3.02608 2.23389,-1.44068 c -0.0294,3.78637 1.06894,7.00657 2.16167,10.23132 l -5.83644,2.44953 c 0.55056,-1.89733 0.93335,-3.79465 0.72047,-5.6921 l -1.80129,-2.2334 c -13.37851,13.98592 -27.28645,27.12566 -40.060911,42.07859 -0.976766,-1.6617 -1.608722,-3.36552 -3.602544,-4.8996 3.922786,-2.55395 6.856288,-7.0863 9.150545,-12.89757 l 3.60256,-0.50412 26.29929,-27.16393 c 1.54412,-3.04909 7.09428,-8.11332 -1.51291,-8.42987 l -47.12245,1.00852 c -0.824647,0.16282 -1.4788,0.60951 -1.729267,1.72921 z"
       id="path883"
       sodipodi:nodetypes="cccccccccccccccccc" />
    <path
       style="fill:#010101;fill-opacity:1;stroke:#000000;stroke-width:0.403503px;stroke-linecap:butt;stroke-linejoin:miter;stroke-opacity:1"
       d="m 139.15379,178.33043 c 3.31113,13.00872 7.88557,25.51293 13.1136,37.75514 3.84487,5.10521 5.77116,3.23874 5.98031,-1.22503 -0.38262,-0.56512 -0.0961,-1.46417 -1.51303,-1.51305 l -1.87334,0.72057 -10.66414,-32.71142 -0.43172,-5.33206 z"
       id="path885"
       sodipodi:nodetypes="cccccccc" />
    <path
       style="fill:#010101;fill-opacity:1;stroke:#000000;stroke-width:0.403503px;stroke-linecap:butt;stroke-linejoin:miter;stroke-opacity:1"
       d="m 147.85495,175.07121 c 3.57355,11.69506 9.0489,22.62901 13.85797,33.82999 2.21904,1.29093 1.8798,2.58139 1.73254,3.87251 -4.01071,5.56678 -7.40335,0.37992 -5.09528,-3.15887 l -14.15308,-28.2582 -0.43166,-5.33206 z"
       id="path887"
       sodipodi:nodetypes="ccccccc" />
    <path
       style="fill:#000000;fill-opacity:1;stroke:#000000;stroke-width:0.403503px;stroke-linecap:butt;stroke-linejoin:miter;stroke-opacity:1"
       d="m 160.08295,211.95829 -5.22162,2.10977 1.45131,2.27216 4.58498,-3.15914 z"
       id="path889" />
    <path
       style="fill:#000000;fill-opacity:1;stroke:#000000;stroke-width:0.403503px;stroke-linecap:butt;stroke-linejoin:miter;stroke-opacity:1"
       d="m 80.399132,215.32094 c -6.253374,-9.38688 -0.710094,-16.88365 7.165306,-16.38359 18.453732,7.96903 7.761444,32.21582 -7.165306,16.38359 z"
       id="path891"
       sodipodi:nodetypes="ccc" />
    <path
       style="fill:#000000;fill-opacity:1;stroke:#000000;stroke-width:0.403503px;stroke-linecap:butt;stroke-linejoin:miter;stroke-opacity:1"
       d="m 81.927562,217.35863 c -2.24689,3.42883 -3.750672,7.10576 -5.196713,10.80137 -2.36359,-0.37944 -4.437846,-0.18047 -6.419549,0.20374 -2.380617,1.66351 -3.679908,3.49847 -5.196781,5.29838 v 2.14012 c 4.007979,0.45519 8.015936,0.41841 12.023941,0.40743 2.23861,-1.22787 3.707211,-2.88404 5.094855,-4.58522 -0.227051,-1.14579 -0.427764,-2.30168 -1.120904,-3.26071 1.614413,-3.05679 2.862404,-6.11384 4.075881,-9.17091 z"
       id="path893"
       sodipodi:nodetypes="cccccccccc" />
    <path
       style="fill:#000000;fill-opacity:1;stroke:#000000;stroke-width:0.403503px;stroke-linecap:butt;stroke-linejoin:miter;stroke-opacity:1"
       d="m 128.08702,138.99966 12.63507,-1.83379 0.2038,-3.87265 c 1.88951,-3.92556 4.17232,-7.40129 7.94808,-9.17076 3.30481,-1.62345 5.80586,-3.95745 10.88697,-4.01056 l 8.9346,1.4411 -1.00903,-3.74697 5.47582,-0.86424 2.30587,4.03491 -1.29713,0.28793 -1.87334,-1.0085 -0.14491,2.73774 3.45884,1.29672 c -0.23678,6.60242 -0.52488,4.62955 4.32321,8.06993 1.17849,3.17637 1.70667,6.51462 0.71993,10.23157 -0.91282,6.00393 -3.73403,10.41826 -6.19623,15.13134 -5.26546,3.6911 -9.32255,3.75802 -13.54592,4.32282 l -17.8281,-4.0506 -4.14778,3.33001 -2.37773,-3.02608 2.44962,-2.5939 c 2.20937,-3.93475 1.25492,-6.14292 0.57652,-8.50207 l -16.71659,1.29673 -3.16981,-2.7376 2.30582,-3.31448 c 1.86853,-0.12441 3.80002,-0.13496 4.34889,-2.63336 z"
       id="path895"
       sodipodi:nodetypes="ccccccccccccccccccccccccccc" />
  </g>
</svg>
